<svg width="512" height="512" viewBox="0 0 512 512" fill="none" xmlns="http://www.w3.org/2000/svg">
  <rect width="512" height="512" rx="128" fill="#ef6820"/>
  <path d="M384 256c0 70.7-57.3 128-128 128s-128-57.3-128-128 57.3-128 128-128 128 57.3 128 128z" fill="white"/>
  <path d="M256 320c35.3 0 64-28.7 64-64s-28.7-64-64-64-64 28.7-64 64 28.7 64 64 64z" fill="#ef6820"/>
  <rect x="128" y="128" width="256" height="32" rx="16" fill="white"/>
  <rect x="128" y="352" width="256" height="32" rx="16" fill="white"/>
  <rect x="128" y="180" width="200" height="20" rx="10" fill="white" opacity="0.8"/>
  <rect x="128" y="312" width="200" height="20" rx="10" fill="white" opacity="0.8"/>
</svg>